<svg width="179" height="62" viewBox="0 0 179 62" fill="none" xmlns="http://www.w3.org/2000/svg">
<path d="M10.8105 29.1975L2.8418 1.89285L4.24805 2.80106L0.263672 1.95145L0.410156 0.0178528H11.6016L11.4551 1.95145C10.5371 2.34207 9.28711 2.6741 7.70508 2.94754L8.05664 2.06863L14.6191 26.7659L15.2051 29.0511C14.5996 29.1487 13.8867 29.2073 13.0664 29.2268C12.2656 29.2659 11.5137 29.2561 10.8105 29.1975ZM15.2051 29.0511L12.2168 28.6116L20.0391 0.691681L23.291 0.720978L15.2051 29.0511ZM27.5391 29.1975L20.2148 2.56668L20.0391 0.691681C20.5859 0.594025 21.2598 0.535431 22.0605 0.5159C22.8613 0.476837 23.5742 0.476837 24.1992 0.5159L31.2891 26.7659L31.9336 29.0511C31.3281 29.1487 30.6152 29.2073 29.7949 29.2268C28.9746 29.2659 28.2227 29.2561 27.5391 29.1975ZM31.9336 29.0511L28.9453 28.6116L36.2402 1.92215L36.5625 2.80106L32.6367 1.95145L32.7832 0.0178528H42.2168L42.0703 1.89285C41.6406 2.12723 41.123 2.34207 40.5176 2.53738C39.9121 2.71317 39.2578 2.85965 38.5547 2.97684L39.8145 1.95145L31.9336 29.0511ZM50.3754 29.0218L50.6684 26.0921H57.3187C61.6547 26.0921 63.8227 24.3929 63.8227 20.9944C63.8227 17.3811 61.3715 15.5745 56.4691 15.5745H50.6684V13.1721H56.7035C65.0434 13.1721 69.2133 15.5647 69.2133 20.3499C69.2133 23.0061 68.0805 25.1155 65.8148 26.678C63.5687 28.2405 60.5414 29.0218 56.7328 29.0218H50.3754ZM48.2953 28.5823V0.428009H53.2172V28.5823H48.2953ZM49.8187 14.6663L50.3754 12.9378H56.9965C60.5316 12.9378 62.2992 11.2386 62.2992 7.84012C62.2992 4.5784 60.6098 2.94754 57.2309 2.94754H50.2289V0.0178528H57.4945C60.7367 0.0178528 63.227 0.642853 64.9652 1.89285C66.7035 3.12332 67.5727 4.8909 67.5727 7.19559C67.5727 9.59793 66.6254 11.4436 64.7309 12.7327C62.8363 14.0218 60.1117 14.6663 56.557 14.6663H49.8187ZM45.0141 29.0218L45.1605 27.1468C46.1762 26.7366 47.4164 26.3557 48.8812 26.0042L48.2953 28.2014V24.0999H53.2172V28.2014L52.7191 26.2386L56.6156 27.0882L56.4691 29.0218H45.0141ZM56.4984 0.0178528L56.352 1.89285C55.3363 2.30301 54.0961 2.68387 52.6312 3.03543L53.2172 0.838165V4.93973H48.2953V0.838165L48.7934 2.80106L44.8969 1.95145L45.0434 0.0178528H56.4984Z" fill="#F73C5C" fill-opacity="0.81"/>
<path d="M27.8508 60.5823V32.428H32.7727V60.5823H27.8508ZM10.7414 60.5823V32.428H15.6633V60.5823H10.7414ZM12.9094 47.8382V44.9671H30.3996V47.8382H12.9094ZM7.46016 61.0218L7.60664 59.1468C8.62227 58.7366 9.8625 58.3557 11.3273 58.0042L10.7414 60.2014V56.0999H15.6633V60.2014L15.1652 58.2386L19.0617 59.0882L18.9152 61.0218H7.46016ZM24.5695 61.0218L24.716 59.1468C25.7316 58.7366 26.9719 58.3557 28.4367 58.0042L27.8508 60.2014V56.0999H32.7727V60.2014L32.2746 58.2386L36.1711 59.0882L36.0246 61.0218H24.5695ZM36.0539 32.0179L35.9074 33.8929C34.8918 34.303 33.6516 34.6839 32.1867 35.0354L32.7727 32.8382V36.9397H27.8508V32.8382L28.3488 34.8011L24.4523 33.9514L24.5988 32.0179H36.0539ZM18.9445 32.0179L18.798 33.8929C17.7824 34.303 16.5422 34.6839 15.0773 35.0354L15.6633 32.8382V36.9397H10.7414V32.8382L11.2395 34.8011L7.34297 33.9514L7.48945 32.0179H18.9445ZM43.3336 60.5823V32.428H48.2555V60.5823H43.3336ZM45.8238 61.0218V58.0921H61.6441L62.3473 61.0218H45.8238ZM62.3473 61.0218L57.6891 59.469L61.2926 52.6721H63.5484C63.5875 53.6878 63.4996 54.9768 63.2848 56.5393C63.0699 58.0823 62.7574 59.5764 62.3473 61.0218ZM45.3551 47.721V44.5569H58.2164L57.982 47.721H45.3551ZM44.1246 34.9475V32.0179H62.025L61.4684 34.9475H44.1246ZM60.2379 39.8401L57.6012 33.6878L62.025 32.0179C62.2984 33.3264 62.4742 34.6643 62.5523 36.0315C62.65 37.3792 62.65 38.6487 62.5523 39.8401H60.2379ZM40.0523 61.0218L40.1988 59.1468C41.2145 58.7366 42.4547 58.3557 43.9195 58.0042L43.3336 60.2014V56.0999H48.2555V60.2014L47.7574 58.2386L51.6539 59.0882L51.5074 61.0218H40.0523ZM51.5367 32.0179L51.3902 33.8929C50.3746 34.303 49.1344 34.6839 47.6695 35.0354L48.2555 32.8382V36.9397H43.3336V32.8382L43.8316 34.8011L39.9352 33.9514L40.0816 32.0179H51.5367ZM82.9277 31.8421L92.5664 59.1175L91.2773 58.2679L95.1152 59.0882L94.9688 61.0218H84.0117L84.1582 59.0296C85.1152 58.6194 86.2773 58.2776 87.6445 58.0042L87.2637 58.8245L79.0605 33.8636L78.0645 31.9886C78.748 31.8909 79.5293 31.8323 80.4082 31.8128C81.2871 31.7932 82.127 31.803 82.9277 31.8421ZM81.1699 32.0179L72.1465 59.1175L71.9414 58.2386L75.5156 59.0882L75.3691 61.0218H66.1406L66.2871 59.1468C66.7754 58.8929 67.3223 58.678 67.9277 58.5022C68.5332 58.3069 69.1582 58.1507 69.8027 58.0335L68.4844 59.1175L78.0645 31.9886L81.1699 32.0179ZM72.8789 52.7893L73.8457 49.9768H86.2969L87.293 52.7893H72.8789ZM100.959 60.5823V32.428H105.881V60.5823H100.959ZM103.42 61.0218V58.0921H118.098L119.299 61.0218H103.42ZM119.299 61.0218L114.465 59.469L118.684 51.5003H120.559C120.559 54.8792 120.139 58.053 119.299 61.0218ZM110.334 32.0179L110.188 33.8929C109.524 34.1077 108.762 34.3128 107.903 34.5081C107.063 34.7034 106.194 34.8596 105.295 34.9768L105.881 32.8382V36.9397H100.959V32.8382L101.457 34.8011L97.5609 33.9514L97.7074 32.0179H110.334ZM97.6781 61.0218L97.8246 59.1468C98.8402 58.7366 100.08 58.3557 101.545 58.0042L100.959 60.2014V56.0999H105.881V60.2014L105.383 58.2386L109.28 59.0882L109.133 61.0218H97.6781ZM131.091 60.5823V32.428H136.012V60.5823H131.091ZM121.042 40.6604C120.807 37.6526 120.964 34.7718 121.511 32.0179L126.052 33.6878L123.034 40.6604H121.042ZM122.038 34.9475L121.511 32.0179H145.593L144.538 34.9475H122.038ZM144.069 40.6604L141.052 33.6878L145.593 32.0179C146.139 34.7718 146.296 37.6526 146.061 40.6604H144.069ZM127.341 61.0218L127.487 59.1468C128.073 58.9319 128.727 58.7268 129.45 58.5315C130.173 58.3362 130.915 58.1702 131.677 58.0335L131.091 60.2014V56.0999H136.012V60.2014L135.456 58.2386L139.88 59.0882L139.733 61.0218H127.341ZM169.718 60.5823V32.428H174.64V60.5823H169.718ZM152.609 60.5823V32.428H157.53V60.5823H152.609ZM154.777 47.8382V44.9671H172.267V47.8382H154.777ZM149.327 61.0218L149.474 59.1468C150.489 58.7366 151.73 58.3557 153.195 58.0042L152.609 60.2014V56.0999H157.53V60.2014L157.032 58.2386L160.929 59.0882L160.782 61.0218H149.327ZM166.437 61.0218L166.583 59.1468C167.599 58.7366 168.839 58.3557 170.304 58.0042L169.718 60.2014V56.0999H174.64V60.2014L174.142 58.2386L178.038 59.0882L177.892 61.0218H166.437ZM177.921 32.0179L177.775 33.8929C176.759 34.303 175.519 34.6839 174.054 35.0354L174.64 32.8382V36.9397H169.718V32.8382L170.216 34.8011L166.32 33.9514L166.466 32.0179H177.921ZM160.812 32.0179L160.665 33.8929C159.65 34.303 158.409 34.6839 156.945 35.0354L157.53 32.8382V36.9397H152.609V32.8382L153.107 34.8011L149.21 33.9514L149.357 32.0179H160.812Z" fill="#2A8BEA" fill-opacity="0.81"/>
</svg>
